<?xml version="1.0" encoding="UTF-8" standalone="no"?>
<svg
   xmlns:dc="http://purl.org/dc/elements/1.1/"
   xmlns:cc="http://creativecommons.org/ns#"
   xmlns:rdf="http://www.w3.org/1999/02/22-rdf-syntax-ns#"
   xmlns:svg="http://www.w3.org/2000/svg"
   xmlns="http://www.w3.org/2000/svg"
   id="svg8"
   version="1.1"
   viewBox="0 0 91 174"
   height="174mm"
   width="91mm">
  <defs
     id="defs2" />
  <metadata
     id="metadata5">
    <rdf:RDF>
      <cc:Work
         rdf:about="">
        <dc:format>image/svg+xml</dc:format>
        <dc:type
           rdf:resource="http://purl.org/dc/dcmitype/StillImage" />
        <dc:title></dc:title>
      </cc:Work>
    </rdf:RDF>
  </metadata>
  <g
     transform="translate(0,-123)"
     id="layer1">
    <g
       transform="matrix(1,-0.26794919,0,1,-65.082031,68.438331)"
       id="g1188">
      <path
         id="path1126"
         d="m 110.7168,84.927734 a 0.92613391,0.92613391 0 0 0 -0.90625,0.800782 c -0.94486,6.924068 -3.34342,9.07479 -6.05078,11.115234 -2.70737,2.040444 -5.898121,3.98451 -7.298832,9.60156 -0.379992,1.52382 0.128587,2.96508 1.09375,3.99414 0.965162,1.02907 2.329273,1.75217 3.847652,2.3125 3.03677,1.12066 6.73651,1.5625 9.32618,1.5625 2.60562,0 5.55391,-0.52277 8.16992,-1.67968 2.616,-1.15692 4.93098,-2.97271 6.05078,-5.60157 1.29448,-3.03894 1.02955,-6.04719 -0.0723,-8.697262 -1.10182,-2.650077 -3.00425,-4.983777 -5.03125,-6.941407 -4.05399,-3.915259 -8.68359,-6.359375 -8.68359,-6.359375 a 0.92613391,0.92613391 0 0 0 -0.44531,-0.107422 z"
         style="opacity:1;fill:#c21616;fill-opacity:1;stroke:none;stroke-width:2.75669169;stroke-linecap:round;stroke-linejoin:round;stroke-miterlimit:4;stroke-dasharray:none;stroke-opacity:1" />
      <path
         id="path1128"
         d="m 110.72812,85.852819 c 0,0 18.14026,9.616399 13.36884,20.817821 -1.99726,4.68879 -8.41033,6.7182 -13.36884,6.7182 -4.9585,0 -14.601964,-1.77318 -13.368836,-6.7182 2.673036,-10.719258 11.425506,-6.57676 13.368836,-20.817821 z"
         style="opacity:1;fill:#ff5555;fill-opacity:1;stroke:none;stroke-width:2.75669169;stroke-linecap:round;stroke-linejoin:round;stroke-miterlimit:4;stroke-dasharray:none;stroke-opacity:1" />
      <path
         id="path1130"
         transform="scale(0.26458333)"
         d="m 423.37109,336.93555 c -0.30334,0.3673 -0.42112,1.22251 -0.25586,2.8164 -3.42198,31.75657 -45.27723,37.26224 -47.6289,68.22266 7.58228,6.2369 17.12838,10.32029 27.26953,12.22266 -1.82228,-0.55164 -3.61069,-1.18929 -5.34766,-1.93165 -6.43143,-30.37621 32.19593,-47.40691 26.56836,-78.84765 -0.49695,-1.21665 -0.66221,-1.99491 -0.60547,-2.48242 z"
         style="opacity:1;fill:#ffffff;fill-opacity:1;stroke:none;stroke-width:10.41899204;stroke-linecap:round;stroke-linejoin:round;stroke-miterlimit:4;stroke-dasharray:none;stroke-opacity:1" />
      <path
         id="path1132"
         transform="scale(0.26458333)"
         d="m 418.5,324.48242 c -0.0133,0.0977 -0.0295,0.18988 -0.043,0.28711 0.41675,0.40396 55.60131,54.01029 26.63477,89.54297 -9.80357,12.02587 -28.1975,14.77165 -44.39258,12.66992 6.44998,1.06978 12.76627,1.57422 17.80078,1.57422 18.74083,0 42.97864,-7.67117 50.52734,-25.39258 C 487.06106,360.82798 418.5,324.48242 418.5,324.48242 Z"
         style="opacity:0.54799996;fill:#e72727;fill-opacity:1;stroke:none;stroke-width:10.41899204;stroke-linecap:round;stroke-linejoin:round;stroke-miterlimit:4;stroke-dasharray:none;stroke-opacity:1" />
      <g
         id="g1144"
         transform="matrix(0.55145273,0,0,0.55145273,49.607402,27.49493)">
        <path
           style="opacity:1;fill:#c21616;fill-opacity:1;stroke:none;stroke-width:6.61458302;stroke-linecap:round;stroke-linejoin:round;stroke-miterlimit:4;stroke-dasharray:none;stroke-opacity:1"
           d="m 110.5957,137.98047 c -11.610475,2e-5 -23.148946,2.41157 -31.583981,6.73242 -8.435035,4.32085 -13.929119,10.74239 -13.929688,17.74609 -6.44e-4,7.0041 5.494515,13.42675 13.929688,17.74805 8.435172,4.3213 19.97285,6.7324 31.583981,6.73242 11.61114,-1e-5 23.14881,-2.41112 31.58399,-6.73242 8.43517,-4.3213 13.93033,-10.74395 13.92969,-17.74805 -5.7e-4,-7.0037 -5.49466,-13.42524 -13.92969,-17.74609 -8.43504,-4.32085 -19.97351,-6.7324 -31.58399,-6.73242 z"
           id="path1134" />
        <ellipse
           style="opacity:1;fill:#ff5555;fill-opacity:1;stroke:none;stroke-width:6.61458302;stroke-linecap:round;stroke-linejoin:round;stroke-miterlimit:4;stroke-dasharray:none;stroke-opacity:1"
           id="ellipse1136"
           cx="110.59583"
           cy="162.45938"
           rx="43.127083"
           ry="22.092709" />
        <path
           style="opacity:1;fill:#ffffff;fill-opacity:1;stroke:none;stroke-width:23.13011932;stroke-linecap:round;stroke-linejoin:round;stroke-miterlimit:4;stroke-dasharray:none;stroke-opacity:1"
           d="m 418,536.76562 a 150.80837,77.254598 0 0 0 -150.80859,77.25391 150.80837,77.254598 0 0 0 39.87109,52.2168 165.47603,84.768396 0 0 1 -10.58984,-29.70313 165.47603,84.768396 0 0 1 165.47656,-84.76758 165.47603,84.768396 0 0 1 58.11133,5.50782 A 150.80837,77.254598 0 0 0 418,536.76562 Z"
           transform="scale(0.26458333)"
           id="path1138" />
        <path
           style="opacity:0.53820597;fill:#d30000;fill-opacity:1;stroke:none;stroke-width:24.99999809;stroke-linecap:round;stroke-linejoin:round;stroke-miterlimit:4;stroke-dasharray:none;stroke-opacity:1"
           d="M 529.61719,553.30859 A 229,117.30981 0 0 1 536,580.20898 229,117.30981 0 0 1 367.42188,693.33984 163,83.500001 0 0 0 418,697.51953 a 163,83.500001 0 0 0 163,-83.5 163,83.500001 0 0 0 -51.38281,-60.71094 z"
           transform="scale(0.26458333)"
           id="path1140" />
        <ellipse
           ry="3.0427086"
           rx="5.9396586"
           cy="183.28455"
           cx="-1.2656338"
           id="ellipse1142"
           style="opacity:1;fill:#ffffff;fill-opacity:1;stroke:none;stroke-width:0.91099054;stroke-linecap:round;stroke-linejoin:round;stroke-miterlimit:4;stroke-dasharray:none;stroke-opacity:1"
           transform="rotate(-30)" />
      </g>
      <g
         transform="matrix(0.76762009,0,0,0.76762009,25.70022,12.220139)"
         id="g1156">
        <path
           id="path1146"
           d="m 110.5957,137.98047 c -11.610475,2e-5 -23.148946,2.41157 -31.583981,6.73242 -8.435035,4.32085 -13.929119,10.74239 -13.929688,17.74609 -6.44e-4,7.0041 5.494515,13.42675 13.929688,17.74805 8.435172,4.3213 19.97285,6.7324 31.583981,6.73242 11.61114,-1e-5 23.14881,-2.41112 31.58399,-6.73242 8.43517,-4.3213 13.93033,-10.74395 13.92969,-17.74805 -5.7e-4,-7.0037 -5.49466,-13.42524 -13.92969,-17.74609 -8.43504,-4.32085 -19.97351,-6.7324 -31.58399,-6.73242 z"
           style="opacity:1;fill:#c21616;fill-opacity:1;stroke:none;stroke-width:6.61458302;stroke-linecap:round;stroke-linejoin:round;stroke-miterlimit:4;stroke-dasharray:none;stroke-opacity:1" />
        <ellipse
           ry="22.092709"
           rx="43.127083"
           cy="162.45938"
           cx="110.59583"
           id="ellipse1148"
           style="opacity:1;fill:#ff5555;fill-opacity:1;stroke:none;stroke-width:6.61458302;stroke-linecap:round;stroke-linejoin:round;stroke-miterlimit:4;stroke-dasharray:none;stroke-opacity:1" />
        <path
           id="path1150"
           transform="scale(0.26458333)"
           d="m 418,536.76562 a 150.80837,77.254598 0 0 0 -150.80859,77.25391 150.80837,77.254598 0 0 0 39.87109,52.2168 165.47603,84.768396 0 0 1 -10.58984,-29.70313 165.47603,84.768396 0 0 1 165.47656,-84.76758 165.47603,84.768396 0 0 1 58.11133,5.50782 A 150.80837,77.254598 0 0 0 418,536.76562 Z"
           style="opacity:1;fill:#ffffff;fill-opacity:1;stroke:none;stroke-width:23.13011932;stroke-linecap:round;stroke-linejoin:round;stroke-miterlimit:4;stroke-dasharray:none;stroke-opacity:1" />
        <path
           id="path1152"
           transform="scale(0.26458333)"
           d="M 529.61719,553.30859 A 229,117.30981 0 0 1 536,580.20898 229,117.30981 0 0 1 367.42188,693.33984 163,83.500001 0 0 0 418,697.51953 a 163,83.500001 0 0 0 163,-83.5 163,83.500001 0 0 0 -51.38281,-60.71094 z"
           style="opacity:0.53820597;fill:#d30000;fill-opacity:1;stroke:none;stroke-width:24.99999809;stroke-linecap:round;stroke-linejoin:round;stroke-miterlimit:4;stroke-dasharray:none;stroke-opacity:1" />
        <ellipse
           transform="rotate(-30)"
           style="opacity:1;fill:#ffffff;fill-opacity:1;stroke:none;stroke-width:0.91099054;stroke-linecap:round;stroke-linejoin:round;stroke-miterlimit:4;stroke-dasharray:none;stroke-opacity:1"
           id="ellipse1154"
           cx="-1.2656338"
           cy="183.28455"
           rx="5.9396586"
           ry="3.0427086" />
      </g>
      <path
         id="path1158"
         d="m 110.5957,137.98047 c -11.610475,2e-5 -23.148946,2.41157 -31.583981,6.73242 -8.435035,4.32085 -13.929119,10.74239 -13.929688,17.74609 -6.44e-4,7.0041 5.494515,13.42675 13.929688,17.74805 8.435172,4.3213 19.97285,6.7324 31.583981,6.73242 11.61114,-1e-5 23.14881,-2.41112 31.58399,-6.73242 8.43517,-4.3213 13.93033,-10.74395 13.92969,-17.74805 -5.7e-4,-7.0037 -5.49466,-13.42524 -13.92969,-17.74609 -8.43504,-4.32085 -19.97351,-6.7324 -31.58399,-6.73242 z"
         style="opacity:1;fill:#c21616;fill-opacity:1;stroke:none;stroke-width:6.61458302;stroke-linecap:round;stroke-linejoin:round;stroke-miterlimit:4;stroke-dasharray:none;stroke-opacity:1" />
      <path
         id="path1160"
         transform="scale(0.26458333)"
         d="m 418,530.51953 a 163,83.500001 0 0 0 -163,83.5 163,83.500001 0 0 0 38.35156,53.67383 c 8.33234,-17.27267 26.33031,-28.61858 47.56641,-36.1582 22.646,-8.04019 49.85042,-11.85547 77.08203,-11.85547 27.23161,0 54.43605,3.81528 77.08203,11.85547 21.27729,7.55423 39.30235,18.93057 47.61328,36.25976 A 163,83.500001 0 0 0 581,614.01953 a 163,83.500001 0 0 0 -163,-83.5 z"
         style="opacity:1;fill:#ff5555;fill-opacity:1;stroke:none;stroke-width:24.99999809;stroke-linecap:round;stroke-linejoin:round;stroke-miterlimit:4;stroke-dasharray:none;stroke-opacity:1" />
      <path
         id="path1162"
         transform="scale(0.26458333)"
         d="m 418,536.76562 a 150.80837,77.254598 0 0 0 -150.80859,77.25391 150.80837,77.254598 0 0 0 30.52734,46.32813 c 1.06109,-1.48952 2.2008,-2.92799 3.41602,-4.31641 a 165.47603,84.768393 0 0 1 -4.66211,-19.49805 165.47603,84.768393 0 0 1 165.47656,-84.76758 165.47603,84.768393 0 0 1 58.11133,5.50782 A 150.80837,77.254598 0 0 0 418,536.76562 Z"
         style="opacity:1;fill:#ffffff;fill-opacity:1;stroke:none;stroke-width:23.13011932;stroke-linecap:round;stroke-linejoin:round;stroke-miterlimit:4;stroke-dasharray:none;stroke-opacity:1" />
      <path
         id="path1164"
         transform="scale(0.26458333)"
         d="M 529.61719,553.30859 A 229,117.30981 0 0 1 536,580.20898 229,117.30981 0 0 1 507.67383,636.67383 c 15.61228,7.30551 28.3505,17.288 34.97461,31.01953 A 163,83.499999 0 0 0 581,614.01953 163,83.499999 0 0 0 529.61719,553.30859 Z"
         style="opacity:0.53820597;fill:#d30000;fill-opacity:1;stroke:none;stroke-width:24.99999619;stroke-linecap:round;stroke-linejoin:round;stroke-miterlimit:4;stroke-dasharray:none;stroke-opacity:1" />
      <ellipse
         transform="rotate(-30)"
         style="opacity:1;fill:#ffffff;fill-opacity:1;stroke:none;stroke-width:0.91099054;stroke-linecap:round;stroke-linejoin:round;stroke-miterlimit:4;stroke-dasharray:none;stroke-opacity:1"
         id="ellipse1166"
         cx="-1.2656338"
         cy="183.28455"
         rx="5.9396586"
         ry="3.0427086" />
      <path
         transform="matrix(1,0,0,1.4859547,1.4550732,-77.045582)"
         d="m 109.14063,225.51347 c -12.355108,0 -37.065331,-42.79936 -30.887776,-53.4992 6.177555,-10.69984 55.597996,-10.69984 61.775556,0 6.17756,10.69984 -18.53267,53.4992 -30.88778,53.4992 z"
         id="path1168"
         style="opacity:1;fill:#ffdd55;fill-opacity:1;stroke:none;stroke-width:7.81514692;stroke-linecap:round;stroke-linejoin:round;stroke-miterlimit:4;stroke-dasharray:none;stroke-opacity:1" />
      <path
         id="path1170"
         transform="scale(0.26458333)"
         d="m 478.55078,637.05469 c 29.29253,71.70576 -17.14254,322.19919 -64.57617,337.71484 1.37507,0.36663 2.71976,0.56445 4.02539,0.56445 46.69648,0 140.08848,-240.37037 116.74023,-300.46289 -6.99323,-17.99882 -28.65499,-30.59954 -56.18945,-37.8164 z"
         style="opacity:0.51799999;fill:#cea500;fill-opacity:1;stroke:none;stroke-width:36.00621414;stroke-linecap:round;stroke-linejoin:round;stroke-miterlimit:4;stroke-dasharray:none;stroke-opacity:1" />
      <path
         id="path1172"
         transform="scale(0.26458333)"
         d="m 420.83398,641.06836 c -2.53482,-0.0268 -5.07633,-0.0211 -7.625,0.0156 -35.21933,3.46398 -76.92923,1.55887 -105.00781,38.46875 -9.16226,50.09005 10.95427,99.02865 24.72266,143.7168 20.85063,52.80004 41.94851,111.32045 80.25586,139.69336 0.79148,0.0344 1.57311,0.0271 2.34765,-0.0117 -24.31762,-33.70925 -41.21492,-79.44774 -57.95703,-121.84375 -15.11618,-49.06265 -37.20173,-102.79373 -27.14258,-157.78711 28.77292,-37.82261 70.57979,-38.52168 107.46485,-41.53906 -5.66648,-0.41882 -11.34638,-0.65253 -17.0586,-0.71289 z"
         style="opacity:1;fill:#ffffff;fill-opacity:1;stroke:none;stroke-width:36.00621414;stroke-linecap:round;stroke-linejoin:round;stroke-miterlimit:4;stroke-dasharray:none;stroke-opacity:1" />
      <path
         id="path1174"
         transform="scale(0.26458333)"
         d="m 428.01367,668.80273 c -40.5908,4e-5 -81.17851,9.87896 -98.91211,29.63282 51.11777,-26.19145 146.70292,-26.18972 197.82032,0.002 -17.73332,-19.75423 -58.31699,-29.63477 -98.90821,-29.63477 z m 16.6875,51 c -33.7423,4e-5 -67.48108,8.21187 -82.22265,24.63282 42.49313,-21.77239 121.9505,-21.77062 164.44336,0.002 -14.74133,-16.42125 -48.47807,-24.63477 -82.22071,-24.63477 z m 5.88281,56 c -25.52405,4e-5 -51.04415,6.21132 -62.19531,18.63282 32.1436,-16.46952 92.24726,-16.46772 124.39063,0.002 -11.15097,-12.42172 -36.67096,-18.63477 -62.19532,-18.63477 z m 4.66797,48 c -18.67555,4e-5 -37.34868,4.54618 -45.50781,13.63477 23.51898,-12.05046 67.49684,-12.05057 91.01563,0 -8.15898,-9.08878 -26.83204,-13.63477 -45.50782,-13.63477 z"
         style="opacity:1;fill:#e6c029;fill-opacity:1;stroke:none;stroke-width:32.69628906;stroke-linecap:round;stroke-linejoin:round;stroke-miterlimit:4;stroke-dasharray:none;stroke-opacity:1" />
      <path
         id="path1176"
         transform="scale(0.26458333)"
         d="m 448.84961,621.36719 c -3.99043,16.25175 -6.36523,35.30952 -6.36523,51.51367 0,17.55084 2.6629,28.89139 8.53515,36.45312 5.87225,7.56178 14.72876,9.70704 22.43945,9.70704 7.71069,0 16.56916,-2.14526 22.44141,-9.70704 5.87225,-7.56173 8.5332,-18.90228 8.5332,-36.45312 0,-12.25552 -1.35878,-26.14492 -3.74609,-39.21875 -1.8432,-0.73689 -3.70583,-1.45251 -5.60547,-2.12695 -14.02108,-4.97802 -29.79194,-8.33186 -46.23242,-10.16797 z"
         style="opacity:1;fill:#c21616;fill-opacity:1;stroke:none;stroke-width:14.05529976;stroke-linecap:round;stroke-linejoin:round;stroke-miterlimit:4;stroke-dasharray:none;stroke-opacity:1" />
      <path
         id="path1178"
         d="m 131.73933,178.03382 c 0,8.91365 -2.89704,10.48701 -6.47071,10.48701 -3.57368,0 -6.47071,-1.57336 -6.47071,-10.48701 0,-8.91365 2.89703,-21.79216 6.47071,-21.79216 3.57367,0 6.47071,12.87851 6.47071,21.79216 z"
         style="opacity:1;fill:#ff5555;fill-opacity:1;stroke:none;stroke-width:3.71879816;stroke-linecap:round;stroke-linejoin:round;stroke-miterlimit:4;stroke-dasharray:none;stroke-opacity:1" />
      <path
         id="path1180"
         d="m 123.03327,160.25096 c -1.26975,2.63681 -1.58727,5.91682 -2.28793,8.63023 -0.63736,5.65306 -2.05015,12.10309 1.01105,17.25871 2.89341,2.78999 8.55766,0.88989 8.48699,-3.46662 0.009,-0.0798 0.0168,-0.1596 0.0256,-0.23939 -1.90729,1.7362 -5.1887,1.99452 -7.18454,0.07 -3.1333,-5.27705 -1.68725,-11.87925 -1.03487,-17.66546 0.36964,-1.43149 0.63567,-3.0172 0.98373,-4.58749 z"
         style="opacity:1;fill:#ffffff;fill-opacity:1;stroke:none;stroke-width:3.71879792;stroke-linecap:round;stroke-linejoin:round;stroke-miterlimit:4;stroke-dasharray:none;stroke-opacity:1" />
      <path
         id="path1182"
         transform="scale(0.26458333)"
         d="m 515.22461,640.57031 c -0.32233,1.04797 -0.63793,2.10893 -0.93555,3.21094 -2.7863,10.31679 -4.44336,22.78466 -4.44336,33.4043 0,10.61956 1.54681,17.82157 5.5293,22.94922 3.98245,5.12764 10.18623,6.6289 15.08008,6.6289 4.89381,0 11.10306,-1.50186 15.08789,-6.6289 3.98479,-5.12705 5.5293,-12.32886 5.5293,-22.94922 0,-4.57469 -0.3243,-9.49334 -0.89844,-14.4336 a 163,83.5 0 0 1 -7.47852,5.04297 c -5.50983,-11.48861 -15.30466,-20.34792 -27.4707,-27.22461 z"
         style="opacity:1;fill:#c21616;fill-opacity:1;stroke:none;stroke-width:8.30420113;stroke-linecap:round;stroke-linejoin:round;stroke-miterlimit:4;stroke-dasharray:none;stroke-opacity:1" />
      <path
         style="opacity:1;fill:#e72727;fill-opacity:1;stroke:none;stroke-width:2.19715333;stroke-linecap:round;stroke-linejoin:round;stroke-miterlimit:4;stroke-dasharray:none;stroke-opacity:1"
         d="m 144.17291,179.17114 c 0,5.2664 -1.71164,6.19597 -3.82304,6.19597 -2.11141,0 -3.82305,-0.92957 -3.82305,-6.19597 0,-5.26639 1.71164,-12.87532 3.82305,-12.87532 2.1114,0 3.82304,7.60893 3.82304,12.87532 z"
         id="path1184" />
      <path
         style="opacity:1;fill:#ffffff;fill-opacity:1;stroke:none;stroke-width:2.19715309;stroke-linecap:round;stroke-linejoin:round;stroke-miterlimit:4;stroke-dasharray:none;stroke-opacity:1"
         d="m 139.02917,168.66461 c -0.7502,1.55789 -0.9378,3.4958 -1.35176,5.09894 -0.37657,3.33996 -1.21128,7.15079 0.59735,10.19686 1.70949,1.64839 5.05607,0.52576 5.01431,-2.04817 0.005,-0.0472 0.01,-0.0943 0.0152,-0.14144 -1.12688,1.0258 -3.06562,1.17842 -4.2448,0.0414 -1.85123,-3.11781 -0.99687,-7.01854 -0.61143,-10.43717 0.21839,-0.84576 0.37557,-1.78264 0.58121,-2.7104 z"
         id="path1186" />
    </g>
  </g>
</svg>
